HIERARCHY
ROOT SpineBase
{
  OFFSET 0.000000 0.000000 0.000000
  CHANNELS 6 Xposition Yposition Zposition Zrotation Xrotation Yrotation
  JOINT SpineMid
  {
    OFFSET 0.000000 26.395644 0.000000
    CHANNELS 3 Zrotation Xrotation Yrotation
    JOINT SpineShoulder
    {
      OFFSET -0.077943 19.622913 -0.578316
      CHANNELS 3 Zrotation Xrotation Yrotation
      JOINT Neck
      {
        OFFSET -0.051064 6.498643 -0.471097
        CHANNELS 3 Zrotation Xrotation Yrotation
        JOINT Head
        {
          OFFSET -3.209625 12.379809 0.951205
          CHANNELS 3 Zrotation Xrotation Yrotation
          End Site
          {
            OFFSET 0 0 0
          }
        }
      }
      JOINT ShoulderLeft
      {
        OFFSET -13.714814 -4.984553 6.940767
        CHANNELS 3 Zrotation Xrotation Yrotation
        JOINT ElbowLeft
        {
          OFFSET -3.037584 -23.177595 0.697018
          CHANNELS 3 Zrotation Xrotation Yrotation
          JOINT WristLeft
          {
            OFFSET -1.754331 -16.021037 -4.140428
            CHANNELS 3 Zrotation Xrotation Yrotation
            JOINT HandLeft
            {
              OFFSET 1.889146 -7.122702 -0.034224
              CHANNELS 3 Zrotation Xrotation Yrotation
              JOINT HandTipLeft
              {
                OFFSET 0.280850 -6.544114 -0.255874
                CHANNELS 3 Zrotation Xrotation Yrotation
                End Site
                {
                  OFFSET 0 0 0
                }
              }
              JOINT ThumbLeft
              {
                OFFSET 1.378672 0.042096 -3.289171
                CHANNELS 3 Zrotation Xrotation Yrotation
                End Site
                {
                  OFFSET 0 0 0
                }
              }
            }
          }
        }
      }
      JOINT ShoulderRight
      {
        OFFSET 11.182289 -3.475419 -7.214547
        CHANNELS 3 Zrotation Xrotation Yrotation
        JOINT ElbowRight
        {
          OFFSET 4.569225 -22.853010 -3.920316
          CHANNELS 3 Zrotation Xrotation Yrotation
          JOINT WristRight
          {
            OFFSET 0.599394 -18.414367 -4.841879
            CHANNELS 3 Zrotation Xrotation Yrotation
            JOINT HandRight
            {
              OFFSET -0.547618 -6.549775 0.311752
              CHANNELS 3 Zrotation Xrotation Yrotation
              JOINT HandTipRight
              {
                OFFSET 0.508627 -5.665367 -0.069509
                CHANNELS 3 Zrotation Xrotation Yrotation
                End Site
                {
                  OFFSET 0 0 0
                }
              }
              JOINT ThumbRight
              {
                OFFSET 1.456146 -0.023129 -3.177968
                CHANNELS 3 Zrotation Xrotation Yrotation
                End Site
                {
                  OFFSET 0 0 0
                }
              }
            }
          }
        }
      }
    }
  }
  JOINT HipLeft
  {
    OFFSET -5.276485 0.221005 -0.004778
    CHANNELS 3 Zrotation Xrotation Yrotation
    JOINT KneeLeft
    {
      OFFSET -1.126456 -24.932514 -0.371751
      CHANNELS 3 Zrotation Xrotation Yrotation
      JOINT AnkleLeft
      {
        OFFSET -1.987997 -30.358699 2.104712
        CHANNELS 3 Zrotation Xrotation Yrotation
        JOINT FootLeft
        {
          OFFSET -2.319417 -5.451365 -6.220142
          CHANNELS 3 Zrotation Xrotation Yrotation
          End Site
          {
            OFFSET 0 0 0
          }
        }
      }
    }
  }
  JOINT HipRight
  {
    OFFSET 4.337660 1.254965 -6.168409
    CHANNELS 3 Zrotation Xrotation Yrotation
    JOINT KneeRight
    {
      OFFSET 7.781032 -22.832656 2.018238
      CHANNELS 3 Zrotation Xrotation Yrotation
      JOINT AnkleRight
      {
        OFFSET 1.911813 -30.763654 8.584258
        CHANNELS 3 Zrotation Xrotation Yrotation
        JOINT FootRight
        {
          OFFSET -2.459371 -7.006677 -5.298305
          CHANNELS 3 Zrotation Xrotation Yrotation
          End Site
          {
            OFFSET 0 0 0
          }
        }
      }
    }
  }
}
MOTION
Frames: 7
Frame Time: 0.033333
35.242614 104.545732 335.224403 4.570775 -1.915032 5.665478 -0.167717 0.023858 -5.464396 0.012564 0.169783 0.177090 -6.163012 22.962149 5.777248 0.000000 0.000000 0.000000 31.751134 21.037450 -9.617953 6.223832 -8.789994 -5.927199 -25.194190 12.780954 14.095234 26.202915 -8.621235 1.746046 0.000000 0.000000 0.000000 0.000000 0.000000 0.000000 10.354536 9.889209 -2.553067 7.241326 -14.549771 -1.776577 27.701678 36.042973 -12.602623 -19.344092 -21.017586 0.722192 0.000000 0.000000 0.000000 0.000000 0.000000 0.000000 -29.485677 -7.764742 -5.775404 17.025800 13.744394 -2.467122 -3.517349 9.337932 8.007813 0.000000 0.000000 0.000000 9.542671 16.101469 -1.610973 -1.001697 -15.430934 -1.084887 -9.610034 23.543343 -11.949795 0.000000 0.000000 0.000000
31.215403 105.239211 334.602147 6.059239 0.586630 -2.500364 -0.114436 -0.060854 2.648994 0.150202 0.281868 0.256729 -15.493020 21.119001 7.711194 0.000000 0.000000 0.000000 34.932683 23.940530 -11.958068 7.943566 -14.038206 -3.321863 -26.757439 10.946611 14.524570 20.953435 -10.299465 0.929477 0.000000 0.000000 0.000000 0.000000 0.000000 0.000000 6.707603 10.400487 -1.466522 10.256851 -12.932377 -2.525813 28.373225 40.059352 -15.017643 -18.430428 -21.558802 1.437048 0.000000 0.000000 0.000000 0.000000 0.000000 0.000000 -27.711806 -15.513239 0.251504 17.476711 15.534340 -2.874059 5.627125 15.347760 -6.710306 0.000000 0.000000 0.000000 5.653276 15.794198 7.395615 2.854641 -16.188160 0.816453 4.078599 25.790124 -29.412575 0.000000 0.000000 0.000000
26.697387 105.858737 333.729618 7.289308 1.774326 6.390158 -0.083982 -0.191356 -6.272024 0.266635 0.261409 0.325629 -20.749168 23.835157 9.809768 0.000000 0.000000 0.000000 39.540942 29.317918 -16.711861 8.070385 -20.170386 0.475249 -24.755262 7.881186 14.823425 15.375942 -8.898448 -0.688351 0.000000 0.000000 0.000000 0.000000 0.000000 0.000000 5.874976 12.994028 -1.260477 10.245635 -13.309648 -2.704892 31.420095 41.384120 -16.852147 -21.039984 -20.509732 0.257907 0.000000 0.000000 0.000000 0.000000 0.000000 0.000000 -29.857015 -12.694526 -8.300149 20.017885 15.922988 -3.501008 7.255571 9.798373 -11.048809 0.000000 0.000000 0.000000 6.619350 12.177307 -1.957578 7.335643 -14.136372 3.312615 10.242473 22.778278 -39.572310 0.000000 0.000000 0.000000
22.765943 104.894517 332.284265 8.569585 2.645669 50.888805 -0.568147 -0.464499 -50.773607 0.311565 -0.205463 0.419331 -22.231683 23.458607 9.553014 0.000000 0.000000 0.000000 45.854874 37.012394 -25.057707 8.020403 -30.205200 7.241056 -20.661733 1.693370 14.568753 11.670028 -1.317757 -2.931266 0.000000 0.000000 0.000000 0.000000 0.000000 0.000000 7.695371 18.792881 -1.918117 9.317897 -17.453101 -2.288886 34.910288 43.126240 -19.644760 -26.199283 -19.435357 -2.434906 0.000000 0.000000 0.000000 0.000000 0.000000 0.000000 -31.671303 13.200954 -45.964163 26.051396 13.553287 -3.979254 6.019765 12.356069 -16.153948 0.000000 0.000000 0.000000 8.750717 -1.930275 -47.133631 8.198287 -6.177324 4.704895 10.227025 17.761633 -42.455134 0.000000 0.000000 0.000000
17.873151 99.712371 330.305084 7.703803 1.760300 66.241656 -0.500315 -0.277727 -66.088543 0.433908 0.029544 0.373062 -20.199856 24.362507 9.519447 0.000000 0.000000 0.000000 56.785398 46.842633 -38.689067 12.892187 -43.069633 19.058422 -14.514848 5.572438 14.335540 5.828206 -0.735390 -3.914386 0.000000 0.000000 0.000000 0.000000 0.000000 0.000000 12.732058 28.936921 -3.130988 5.673003 -29.849824 -1.127333 49.469651 44.149112 -28.121530 -37.638300 -15.652420 -8.622086 0.000000 0.000000 0.000000 0.000000 0.000000 0.000000 -26.492389 20.652586 -60.008088 31.333748 12.893735 -4.715032 6.252241 26.502695 -26.194584 0.000000 0.000000 0.000000 7.326686 -14.768214 -62.416327 2.283591 0.683755 4.719446 -0.294982 26.323766 -37.215237 0.000000 0.000000 0.000000
16.364342 100.423869 329.644682 8.020472 -0.476527 72.711248 -0.551596 -0.303623 -72.400596 0.559463 -0.010757 0.382073 -11.293082 26.986212 7.034567 0.000000 0.000000 0.000000 75.662937 60.461588 -68.434207 29.963314 -44.824864 35.193013 -14.947879 13.224710 16.974521 1.880148 -14.413462 -3.328338 0.000000 0.000000 0.000000 0.000000 0.000000 0.000000 22.086883 45.779283 -8.897885 -5.239546 -44.309004 -4.170562 60.347566 38.966797 -27.556221 -45.791647 -8.108330 -12.813736 0.000000 0.000000 0.000000 0.000000 0.000000 0.000000 -20.954671 23.797214 -66.418956 29.426314 11.807340 -4.102336 10.983344 39.720500 -33.394084 0.000000 0.000000 0.000000 5.839735 -18.191885 -69.725490 -2.872262 5.924724 3.794295 -5.542086 23.561177 -29.648062 0.000000 0.000000 0.000000
18.018033 100.226224 332.626062 16.419035 -7.577945 73.053047 -0.600635 -0.168443 -71.418067 0.362727 -0.285375 0.707491 -16.321331 30.605365 5.650541 0.000000 0.000000 0.000000 127.528645 54.401265 -140.717856 52.541194 -48.304456 63.396832 -28.042782 23.826862 19.209962 15.878050 -36.673344 6.752767 0.000000 0.000000 0.000000 0.000000 0.000000 0.000000 50.999729 66.317606 -41.347253 -35.814791 -49.122906 -24.635860 64.910788 35.736738 -19.241340 -44.470093 -13.849687 -12.016548 0.000000 0.000000 0.000000 0.000000 0.000000 0.000000 -14.723079 37.693571 -63.540765 30.130130 7.366268 -2.409753 8.839625 38.386979 -28.915165 0.000000 0.000000 0.000000 8.076835 -1.827295 -71.539358 6.264656 11.321654 3.916373 -14.170489 7.115606 -23.087528 0.000000 0.000000 0.000000
